<svg viewBox="0 0 954 400" xmlns="http://www.w3.org/2000/svg"><g><g><g><g><g><line x1="40" y1="377" x2="35" y2="377" style="visibility: inherit;" fill="rgb(0, 0, 0)" stroke="rgb(204, 204, 204)" stroke-width="1px"></line><line x1="40" y1="335.11111111111114" x2="35" y2="335.11111111111114" style="visibility: inherit;" fill="rgb(0, 0, 0)" stroke="rgb(204, 204, 204)" stroke-width="1px"></line><line x1="40" y1="293.22222222222223" x2="35" y2="293.22222222222223" style="visibility: inherit;" fill="rgb(0, 0, 0)" stroke="rgb(204, 204, 204)" stroke-width="1px"></line><line x1="40" y1="251.33333333333337" x2="35" y2="251.33333333333337" style="visibility: inherit;" fill="rgb(0, 0, 0)" stroke="rgb(204, 204, 204)" stroke-width="1px"></line><line x1="40" y1="209.44444444444446" x2="35" y2="209.44444444444446" style="visibility: inherit;" fill="rgb(0, 0, 0)" stroke="rgb(204, 204, 204)" stroke-width="1px"></line><line x1="40" y1="167.55555555555563" x2="35" y2="167.55555555555563" style="visibility: inherit;" fill="rgb(0, 0, 0)" stroke="rgb(204, 204, 204)" stroke-width="1px"></line><line x1="40" y1="125.66666666666669" x2="35" y2="125.66666666666669" style="visibility: inherit;" fill="rgb(0, 0, 0)" stroke="rgb(204, 204, 204)" stroke-width="1px"></line><line x1="40" y1="83.77777777777786" x2="35" y2="83.77777777777786" style="visibility: inherit;" fill="rgb(0, 0, 0)" stroke="rgb(204, 204, 204)" stroke-width="1px"></line><line x1="40" y1="41.88888888888891" x2="35" y2="41.88888888888891" style="visibility: inherit;" fill="rgb(0, 0, 0)" stroke="rgb(204, 204, 204)" stroke-width="1px"></line><line x1="40" y1="0" x2="35" y2="0" style="visibility: inherit;" fill="rgb(0, 0, 0)" stroke="rgb(204, 204, 204)" stroke-width="1px"></line></g><g transform="translate(30, 0)"><text x="0" y="377" dx="0em" dy="0.3em" style="text-anchor: end; visibility: hidden; font-family: Roboto, sans-serif; font-size: 12px; font-weight: 200;" fill="rgb(33, 33, 33)" stroke="none" stroke-width="1px">0.2</text><text x="0" y="335.11111111111114" dx="0em" dy="0.3em" style="text-anchor: end; visibility: inherit; font-family: Roboto, sans-serif; font-size: 12px; font-weight: 200;" fill="rgb(33, 33, 33)" stroke="none" stroke-width="1px">0.3</text><text x="0" y="293.22222222222223" dx="0em" dy="0.3em" style="text-anchor: end; visibility: inherit; font-family: Roboto, sans-serif; font-size: 12px; font-weight: 200;" fill="rgb(33, 33, 33)" stroke="none" stroke-width="1px">0.4</text><text x="0" y="251.33333333333337" dx="0em" dy="0.3em" style="text-anchor: end; visibility: inherit; font-family: Roboto, sans-serif; font-size: 12px; font-weight: 200;" fill="rgb(33, 33, 33)" stroke="none" stroke-width="1px">0.5</text><text x="0" y="209.44444444444446" dx="0em" dy="0.3em" style="text-anchor: end; visibility: inherit; font-family: Roboto, sans-serif; font-size: 12px; font-weight: 200;" fill="rgb(33, 33, 33)" stroke="none" stroke-width="1px">0.6</text><text x="0" y="167.55555555555563" dx="0em" dy="0.3em" style="text-anchor: end; visibility: inherit; font-family: Roboto, sans-serif; font-size: 12px; font-weight: 200;" fill="rgb(33, 33, 33)" stroke="none" stroke-width="1px">0.7</text><text x="0" y="125.66666666666669" dx="0em" dy="0.3em" style="text-anchor: end; visibility: inherit; font-family: Roboto, sans-serif; font-size: 12px; font-weight: 200;" fill="rgb(33, 33, 33)" stroke="none" stroke-width="1px">0.8</text><text x="0" y="83.77777777777786" dx="0em" dy="0.3em" style="text-anchor: end; visibility: inherit; font-family: Roboto, sans-serif; font-size: 12px; font-weight: 200;" fill="rgb(33, 33, 33)" stroke="none" stroke-width="1px">0.9</text><text x="0" y="41.88888888888891" dx="0em" dy="0.3em" style="text-anchor: end; visibility: inherit; font-family: Roboto, sans-serif; font-size: 12px; font-weight: 200;" fill="rgb(33, 33, 33)" stroke="none" stroke-width="1px">1</text><text x="0" y="0" dx="0em" dy="0.3em" style="text-anchor: end; visibility: hidden; font-family: Roboto, sans-serif; font-size: 12px; font-weight: 200;" fill="rgb(33, 33, 33)" stroke="none" stroke-width="1px">1.1</text></g><line x1="40" y1="0" x2="40" y2="377" fill="rgb(0, 0, 0)" stroke="rgb(204, 204, 204)" stroke-width="1px"></line></g></g><g transform="translate(40, 0)" clip-path="url(#clip_0)"><clipPath id="clip_0"><rect width="914" height="377"></rect></clipPath><g><g><g><line x1="0" y1="0" x2="0" y2="377" fill="rgb(0, 0, 0)" stroke="rgb(66, 66, 66)" stroke-width="1px" opacity="0.25"></line><line x1="76.16666666666666" y1="0" x2="76.16666666666666" y2="377" fill="rgb(0, 0, 0)" stroke="rgb(66, 66, 66)" stroke-width="1px" opacity="0.25"></line><line x1="152.33333333333331" y1="0" x2="152.33333333333331" y2="377" fill="rgb(0, 0, 0)" stroke="rgb(66, 66, 66)" stroke-width="1px" opacity="0.25"></line><line x1="228.5" y1="0" x2="228.5" y2="377" fill="rgb(0, 0, 0)" stroke="rgb(66, 66, 66)" stroke-width="1px" opacity="0.25"></line><line x1="304.66666666666663" y1="0" x2="304.66666666666663" y2="377" fill="rgb(0, 0, 0)" stroke="rgb(66, 66, 66)" stroke-width="1px" opacity="0.25"></line><line x1="380.83333333333337" y1="0" x2="380.83333333333337" y2="377" fill="rgb(0, 0, 0)" stroke="rgb(66, 66, 66)" stroke-width="1px" opacity="0.25"></line><line x1="457" y1="0" x2="457" y2="377" fill="rgb(0, 0, 0)" stroke="rgb(66, 66, 66)" stroke-width="1px" opacity="0.25"></line><line x1="533.1666666666667" y1="0" x2="533.1666666666667" y2="377" fill="rgb(0, 0, 0)" stroke="rgb(66, 66, 66)" stroke-width="1px" opacity="0.25"></line><line x1="609.3333333333333" y1="0" x2="609.3333333333333" y2="377" fill="rgb(0, 0, 0)" stroke="rgb(66, 66, 66)" stroke-width="1px" opacity="0.25"></line><line x1="685.5" y1="0" x2="685.5" y2="377" fill="rgb(0, 0, 0)" stroke="rgb(66, 66, 66)" stroke-width="1px" opacity="0.25"></line><line x1="761.6666666666667" y1="0" x2="761.6666666666667" y2="377" fill="rgb(0, 0, 0)" stroke="rgb(66, 66, 66)" stroke-width="1px" opacity="0.25"></line><line x1="837.8333333333333" y1="0" x2="837.8333333333333" y2="377" fill="rgb(0, 0, 0)" stroke="rgb(66, 66, 66)" stroke-width="1px" opacity="0.25"></line><line x1="914" y1="0" x2="914" y2="377" fill="rgb(0, 0, 0)" stroke="rgb(66, 66, 66)" stroke-width="1px" opacity="0.25"></line></g><g><line x1="0" y1="377" x2="914" y2="377" fill="rgb(0, 0, 0)" stroke="rgb(66, 66, 66)" stroke-width="1px" opacity="0.25"></line><line x1="0" y1="335.11111111111114" x2="914" y2="335.11111111111114" fill="rgb(0, 0, 0)" stroke="rgb(66, 66, 66)" stroke-width="1px" opacity="0.25"></line><line x1="0" y1="293.22222222222223" x2="914" y2="293.22222222222223" fill="rgb(0, 0, 0)" stroke="rgb(66, 66, 66)" stroke-width="1px" opacity="0.25"></line><line x1="0" y1="251.33333333333337" x2="914" y2="251.33333333333337" fill="rgb(0, 0, 0)" stroke="rgb(66, 66, 66)" stroke-width="1px" opacity="0.25"></line><line x1="0" y1="209.44444444444446" x2="914" y2="209.44444444444446" fill="rgb(0, 0, 0)" stroke="rgb(66, 66, 66)" stroke-width="1px" opacity="0.25"></line><line x1="0" y1="167.55555555555563" x2="914" y2="167.55555555555563" fill="rgb(0, 0, 0)" stroke="rgb(66, 66, 66)" stroke-width="1px" opacity="0.25"></line><line x1="0" y1="125.66666666666669" x2="914" y2="125.66666666666669" fill="rgb(0, 0, 0)" stroke="rgb(66, 66, 66)" stroke-width="1px" opacity="0.25"></line><line x1="0" y1="83.77777777777786" x2="914" y2="83.77777777777786" fill="rgb(0, 0, 0)" stroke="rgb(66, 66, 66)" stroke-width="1px" opacity="0.25"></line><line x1="0" y1="41.88888888888891" x2="914" y2="41.88888888888891" fill="rgb(0, 0, 0)" stroke="rgb(66, 66, 66)" stroke-width="1px" opacity="0.25"></line><line x1="0" y1="0" x2="914" y2="0" fill="rgb(0, 0, 0)" stroke="rgb(66, 66, 66)" stroke-width="1px" opacity="0.25"></line></g></g></g><g><g><line x1="0" y1="460.7777777777778" x2="914" y2="460.7777777777778" fill="rgb(0, 0, 0)" stroke="rgb(153, 153, 153)" stroke-width="1.5px"></line></g></g><g><g><line x1="76.16666666666666" y1="0" x2="76.16666666666666" y2="377" fill="rgb(0, 0, 0)" stroke="rgb(153, 153, 153)" stroke-width="1.5px"></line></g></g><g><g><g><g><g><path stroke="rgb(0, 119, 187)" stroke-width="2px" d="M76.16666666666666,385.9339308208889L83.78333333333333,344.2225399745835L91.4,336.2352528969447L99.01666666666667,338.01019587119424L106.63333333333334,314.9358123673333L114.25,292.4530765215556L121.86666666666666,279.1409230695831L129.48333333333332,282.09918632772235L137.1,249.55837787522213L144.71666666666667,217.01756942272186L152.33333333333331,213.76350106133359L159.95,175.89782623449963L167.56666666666666,177.96862424744504L175.18333333333334,164.95230086644494L182.8,154.30256811777753L190.41666666666669,119.98682917488946L198.03333333333333,150.16102202733362L205.65,109.92875656816697L213.26666666666668,91.8833843999439L220.88333333333333,95.43329531616637L228.5,77.68376570277746L236.1166666666667,98.68738864527812L243.73333333333332,78.86708598666723L251.35000000000002,64.66744232177739L258.96666666666664,64.66744232177739L266.58333333333337,62.89248686366613L274.2,59.93423608938854L281.81666666666666,59.04675836033294L289.43333333333334,68.21735323799986L297.05,70.87978642516669L304.66666666666663,52.24277908272216L312.28333333333336,54.90521226988902L319.9,74.13385478655499L327.51666666666665,61.7091915474998L335.1333333333333,65.85076260566716L342.75,61.11755637327831L350.3666666666667,62.89248686366613L357.98333333333335,63.77996459272174L365.6,59.93423608938854L373.21666666666664,56.97598531511096L380.83333333333337,55.201029856999746L388.45,54.017734540833416L396.06666666666666,58.45512318611149L403.68333333333334,59.3426009151671L411.3,54.90521226988902L418.91666666666663,49.876188450389456L426.53333333333336,48.39705057938897L434.15,48.39705057938897L441.76666666666665,47.80539043744408L449.3833333333333,48.39705057938897L457,48.39705057938897L464.6166666666666,48.39705057938897L472.2333333333334,48.39705057938897L479.85,48.692868166499686L487.46666666666664,48.39705057938897L495.0833333333333,48.39705057938897L502.70000000000005,48.10123299227824L510.31666666666666,48.10123299227824L517.9333333333333,47.509572850333356L525.55,48.10123299227824L533.1666666666667,47.21375526322264L540.7833333333333,47.509572850333356L548.4,47.509572850333356L556.0166666666667,47.80539043744408L563.6333333333333,48.10123299227824L571.25,47.509572850333356L578.8666666666667,47.21375526322264L586.4833333333333,47.509572850333356L594.1,47.80539043744408L601.7166666666667,47.80539043744408L609.3333333333333,47.509572850333356L616.95,47.509572850333356L624.5666666666667,47.509572850333356L632.1833333333333,47.80539043744408L639.8,47.21375526322264L647.4166666666667,47.509572850333356L655.0333333333333,47.509572850333356L662.65,47.80539043744408L670.2666666666667,47.80539043744408L677.8833333333333,47.80539043744408L685.5,47.509572850333356L693.1166666666667,47.80539043744408L700.7333333333333,47.80539043744408L708.35,47.80539043744408L715.9666666666667,47.509572850333356L723.5833333333333,47.509572850333356L731.2,47.80539043744408L738.8166666666667,47.509572850333356L746.4333333333333,47.509572850333356L754.05,47.509572850333356L761.6666666666667,47.509572850333356L769.2833333333333,48.39705057938897L776.9,47.509572850333356L784.5166666666667,47.80539043744408L792.1333333333333,47.80539043744408L799.75,47.509572850333356L807.3666666666667,48.10123299227824L814.9833333333333,47.509572850333356L822.6,47.509572850333356L830.2166666666667,47.509572850333356" style="fill: none;" fill="none"></path></g><g><path stroke="rgb(255, 112, 67)" stroke-width="2px" d="M76.16666666666666,411.96657134095824L83.78333333333333,368.6070111360815L91.4,348.32182819313476L99.01666666666667,335.2632469402419L106.63333333333334,321.3171879582935L114.25,304.96226798825796L121.86666666666666,307.6247011754248L129.48333333333332,282.1414441996151L137.1,258.8134884966745L144.71666666666667,235.10518697897598L152.33333333333331,206.3255912860235L159.95,189.33675330215033L167.56666666666666,189.84389770030978L175.18333333333334,160.93751590781744L182.8,129.8758453263177L190.41666666666669,126.83305384053125L198.03333333333333,105.53363827864331L205.65,98.43381644619836L213.26666666666668,98.30703034665851L220.88333333333333,88.54480029477014L228.5,74.21839549806384L236.1166666666667,76.62725648615098L243.73333333333332,71.55596231089702L251.35000000000002,62.68118502034086L258.96666666666664,82.58602839046057L266.58333333333337,61.54016005992894L274.2,52.66538276937274L281.81666666666666,48.48156632317442L289.43333333333334,57.60989084508685L297.05,54.18676602840428L304.66666666666663,46.579824765523306L312.28333333333336,45.692347036467694L319.9,54.18676602840428L327.51666666666665,59.76520460181768L335.1333333333333,51.52435780896086L342.75,46.579824765523306L350.3666666666667,48.98871072133385L357.98333333333335,47.340541362762494L365.6,48.48156632317442L373.21666666666664,45.81913313600755L380.83333333333337,50.38330788082549L388.45,44.297749876976056L396.06666666666666,49.876188450389456L403.68333333333334,51.52435780896086L411.3,45.945919235547414L418.91666666666663,43.663844347000165L426.53333333333336,41.88888888888891L434.15,41.88888888888891L441.76666666666665,41.88888888888891L449.3833333333333,41.88888888888891L457,41.88888888888891L464.6166666666666,41.88888888888891L472.2333333333334,41.88888888888891L479.85,41.88888888888891L487.46666666666664,41.88888888888891L495.0833333333333,41.88888888888891L502.70000000000005,41.88888888888891L510.31666666666666,41.88888888888891L517.9333333333333,41.88888888888891L525.55,41.88888888888891L533.1666666666667,41.88888888888891L540.7833333333333,41.88888888888891L548.4,41.88888888888891L556.0166666666667,41.88888888888891L563.6333333333333,41.88888888888891L571.25,41.88888888888891L578.8666666666667,41.88888888888891L586.4833333333333,41.88888888888891L594.1,41.88888888888891L601.7166666666667,41.88888888888891L609.3333333333333,41.88888888888891L616.95,41.88888888888891L624.5666666666667,41.88888888888891L632.1833333333333,41.88888888888891L639.8,41.88888888888891L647.4166666666667,41.88888888888891L655.0333333333333,41.88888888888891L662.65,41.88888888888891L670.2666666666667,41.88888888888891L677.8833333333333,41.88888888888891L685.5,41.88888888888891L693.1166666666667,41.88888888888891L700.7333333333333,41.88888888888891L708.35,41.88888888888891L715.9666666666667,41.88888888888891L723.5833333333333,41.88888888888891L731.2,41.88888888888891L738.8166666666667,41.88888888888891L746.4333333333333,41.88888888888891L754.05,41.88888888888891L761.6666666666667,41.88888888888891L769.2833333333333,41.88888888888891L776.9,41.88888888888891L784.5166666666667,41.88888888888891L792.1333333333333,41.88888888888891L799.75,41.88888888888891L807.3666666666667,41.88888888888891L814.9833333333333,41.88888888888891L822.6,41.88888888888891L830.2166666666667,41.88888888888891" style="fill: none;" fill="none"></path></g></g></g></g></g></g><g transform="translate(40, 377)" clip-path="url(#clip_1)"><clipPath id="clip_1"><rect width="914" height="23"></rect></clipPath><g><g><line x1="0" y1="0" x2="0" y2="5" style="visibility: inherit;" fill="rgb(0, 0, 0)" stroke="rgb(204, 204, 204)" stroke-width="1px"></line><line x1="76.16666666666666" y1="0" x2="76.16666666666666" y2="5" style="visibility: inherit;" fill="rgb(0, 0, 0)" stroke="rgb(204, 204, 204)" stroke-width="1px"></line><line x1="152.33333333333331" y1="0" x2="152.33333333333331" y2="5" style="visibility: inherit;" fill="rgb(0, 0, 0)" stroke="rgb(204, 204, 204)" stroke-width="1px"></line><line x1="228.5" y1="0" x2="228.5" y2="5" style="visibility: inherit;" fill="rgb(0, 0, 0)" stroke="rgb(204, 204, 204)" stroke-width="1px"></line><line x1="304.66666666666663" y1="0" x2="304.66666666666663" y2="5" style="visibility: inherit;" fill="rgb(0, 0, 0)" stroke="rgb(204, 204, 204)" stroke-width="1px"></line><line x1="380.83333333333337" y1="0" x2="380.83333333333337" y2="5" style="visibility: inherit;" fill="rgb(0, 0, 0)" stroke="rgb(204, 204, 204)" stroke-width="1px"></line><line x1="457" y1="0" x2="457" y2="5" style="visibility: inherit;" fill="rgb(0, 0, 0)" stroke="rgb(204, 204, 204)" stroke-width="1px"></line><line x1="533.1666666666667" y1="0" x2="533.1666666666667" y2="5" style="visibility: inherit;" fill="rgb(0, 0, 0)" stroke="rgb(204, 204, 204)" stroke-width="1px"></line><line x1="609.3333333333333" y1="0" x2="609.3333333333333" y2="5" style="visibility: inherit;" fill="rgb(0, 0, 0)" stroke="rgb(204, 204, 204)" stroke-width="1px"></line><line x1="685.5" y1="0" x2="685.5" y2="5" style="visibility: inherit;" fill="rgb(0, 0, 0)" stroke="rgb(204, 204, 204)" stroke-width="1px"></line><line x1="761.6666666666667" y1="0" x2="761.6666666666667" y2="5" style="visibility: inherit;" fill="rgb(0, 0, 0)" stroke="rgb(204, 204, 204)" stroke-width="1px"></line><line x1="837.8333333333333" y1="0" x2="837.8333333333333" y2="5" style="visibility: inherit;" fill="rgb(0, 0, 0)" stroke="rgb(204, 204, 204)" stroke-width="1px"></line><line x1="914" y1="0" x2="914" y2="5" style="visibility: inherit;" fill="rgb(0, 0, 0)" stroke="rgb(204, 204, 204)" stroke-width="1px"></line></g><g transform="translate(0, 8)"><text x="0" y="0" dx="0em" dy="0.95em" style="text-anchor: middle; visibility: hidden; font-family: Roboto, sans-serif; font-size: 12px; font-weight: 200;" fill="rgb(33, 33, 33)" stroke="none" stroke-width="1px">-10</text><text x="76.16666666666666" y="0" dx="0em" dy="0.95em" style="text-anchor: middle; visibility: inherit; font-family: Roboto, sans-serif; font-size: 12px; font-weight: 200;" fill="rgb(33, 33, 33)" stroke="none" stroke-width="1px">0</text><text x="152.33333333333331" y="0" dx="0em" dy="0.95em" style="text-anchor: middle; visibility: inherit; font-family: Roboto, sans-serif; font-size: 12px; font-weight: 200;" fill="rgb(33, 33, 33)" stroke="none" stroke-width="1px">10</text><text x="228.5" y="0" dx="0em" dy="0.95em" style="text-anchor: middle; visibility: inherit; font-family: Roboto, sans-serif; font-size: 12px; font-weight: 200;" fill="rgb(33, 33, 33)" stroke="none" stroke-width="1px">20</text><text x="304.66666666666663" y="0" dx="0em" dy="0.95em" style="text-anchor: middle; visibility: inherit; font-family: Roboto, sans-serif; font-size: 12px; font-weight: 200;" fill="rgb(33, 33, 33)" stroke="none" stroke-width="1px">30</text><text x="380.83333333333337" y="0" dx="0em" dy="0.95em" style="text-anchor: middle; visibility: inherit; font-family: Roboto, sans-serif; font-size: 12px; font-weight: 200;" fill="rgb(33, 33, 33)" stroke="none" stroke-width="1px">40</text><text x="457" y="0" dx="0em" dy="0.95em" style="text-anchor: middle; visibility: inherit; font-family: Roboto, sans-serif; font-size: 12px; font-weight: 200;" fill="rgb(33, 33, 33)" stroke="none" stroke-width="1px">50</text><text x="533.1666666666667" y="0" dx="0em" dy="0.95em" style="text-anchor: middle; visibility: inherit; font-family: Roboto, sans-serif; font-size: 12px; font-weight: 200;" fill="rgb(33, 33, 33)" stroke="none" stroke-width="1px">60</text><text x="609.3333333333333" y="0" dx="0em" dy="0.95em" style="text-anchor: middle; visibility: inherit; font-family: Roboto, sans-serif; font-size: 12px; font-weight: 200;" fill="rgb(33, 33, 33)" stroke="none" stroke-width="1px">70</text><text x="685.5" y="0" dx="0em" dy="0.95em" style="text-anchor: middle; visibility: inherit; font-family: Roboto, sans-serif; font-size: 12px; font-weight: 200;" fill="rgb(33, 33, 33)" stroke="none" stroke-width="1px">80</text><text x="761.6666666666667" y="0" dx="0em" dy="0.95em" style="text-anchor: middle; visibility: inherit; font-family: Roboto, sans-serif; font-size: 12px; font-weight: 200;" fill="rgb(33, 33, 33)" stroke="none" stroke-width="1px">90</text><text x="837.8333333333333" y="0" dx="0em" dy="0.95em" style="text-anchor: middle; visibility: inherit; font-family: Roboto, sans-serif; font-size: 12px; font-weight: 200;" fill="rgb(33, 33, 33)" stroke="none" stroke-width="1px">100</text><text x="914" y="0" dx="0em" dy="0.95em" style="text-anchor: middle; visibility: hidden; font-family: Roboto, sans-serif; font-size: 12px; font-weight: 200;" fill="rgb(33, 33, 33)" stroke="none" stroke-width="1px">110</text></g><line x1="0" y1="0" x2="914" y2="0" fill="rgb(0, 0, 0)" stroke="rgb(204, 204, 204)" stroke-width="1px"></line></g></g></g></g></svg>