<svg viewBox="0 0 954 400" xmlns="http://www.w3.org/2000/svg"><g><g><g><g><g><line x1="40" y1="377" x2="35" y2="377" style="visibility: inherit;" fill="rgb(0, 0, 0)" stroke="rgb(204, 204, 204)" stroke-width="1px"></line><line x1="40" y1="339.3" x2="35" y2="339.3" style="visibility: inherit;" fill="rgb(0, 0, 0)" stroke="rgb(204, 204, 204)" stroke-width="1px"></line><line x1="40" y1="301.6" x2="35" y2="301.6" style="visibility: inherit;" fill="rgb(0, 0, 0)" stroke="rgb(204, 204, 204)" stroke-width="1px"></line><line x1="40" y1="263.9" x2="35" y2="263.9" style="visibility: inherit;" fill="rgb(0, 0, 0)" stroke="rgb(204, 204, 204)" stroke-width="1px"></line><line x1="40" y1="226.2" x2="35" y2="226.2" style="visibility: inherit;" fill="rgb(0, 0, 0)" stroke="rgb(204, 204, 204)" stroke-width="1px"></line><line x1="40" y1="188.5" x2="35" y2="188.5" style="visibility: inherit;" fill="rgb(0, 0, 0)" stroke="rgb(204, 204, 204)" stroke-width="1px"></line><line x1="40" y1="150.8" x2="35" y2="150.8" style="visibility: inherit;" fill="rgb(0, 0, 0)" stroke="rgb(204, 204, 204)" stroke-width="1px"></line><line x1="40" y1="113.09999999999998" x2="35" y2="113.09999999999998" style="visibility: inherit;" fill="rgb(0, 0, 0)" stroke="rgb(204, 204, 204)" stroke-width="1px"></line><line x1="40" y1="75.39999999999998" x2="35" y2="75.39999999999998" style="visibility: inherit;" fill="rgb(0, 0, 0)" stroke="rgb(204, 204, 204)" stroke-width="1px"></line><line x1="40" y1="37.69999999999999" x2="35" y2="37.69999999999999" style="visibility: inherit;" fill="rgb(0, 0, 0)" stroke="rgb(204, 204, 204)" stroke-width="1px"></line><line x1="40" y1="0" x2="35" y2="0" style="visibility: inherit;" fill="rgb(0, 0, 0)" stroke="rgb(204, 204, 204)" stroke-width="1px"></line></g><g transform="translate(30, 0)"><text x="0" y="377" dx="0em" dy="0.3em" style="text-anchor: end; visibility: hidden; font-family: Roboto, sans-serif; font-size: 12px; font-weight: 200;" fill="rgb(33, 33, 33)" stroke="none" stroke-width="1px">0.1</text><text x="0" y="339.3" dx="0em" dy="0.3em" style="text-anchor: end; visibility: inherit; font-family: Roboto, sans-serif; font-size: 12px; font-weight: 200;" fill="rgb(33, 33, 33)" stroke="none" stroke-width="1px">0.2</text><text x="0" y="301.6" dx="0em" dy="0.3em" style="text-anchor: end; visibility: inherit; font-family: Roboto, sans-serif; font-size: 12px; font-weight: 200;" fill="rgb(33, 33, 33)" stroke="none" stroke-width="1px">0.3</text><text x="0" y="263.9" dx="0em" dy="0.3em" style="text-anchor: end; visibility: inherit; font-family: Roboto, sans-serif; font-size: 12px; font-weight: 200;" fill="rgb(33, 33, 33)" stroke="none" stroke-width="1px">0.4</text><text x="0" y="226.2" dx="0em" dy="0.3em" style="text-anchor: end; visibility: inherit; font-family: Roboto, sans-serif; font-size: 12px; font-weight: 200;" fill="rgb(33, 33, 33)" stroke="none" stroke-width="1px">0.5</text><text x="0" y="188.5" dx="0em" dy="0.3em" style="text-anchor: end; visibility: inherit; font-family: Roboto, sans-serif; font-size: 12px; font-weight: 200;" fill="rgb(33, 33, 33)" stroke="none" stroke-width="1px">0.6</text><text x="0" y="150.8" dx="0em" dy="0.3em" style="text-anchor: end; visibility: inherit; font-family: Roboto, sans-serif; font-size: 12px; font-weight: 200;" fill="rgb(33, 33, 33)" stroke="none" stroke-width="1px">0.7</text><text x="0" y="113.09999999999998" dx="0em" dy="0.3em" style="text-anchor: end; visibility: inherit; font-family: Roboto, sans-serif; font-size: 12px; font-weight: 200;" fill="rgb(33, 33, 33)" stroke="none" stroke-width="1px">0.8</text><text x="0" y="75.39999999999998" dx="0em" dy="0.3em" style="text-anchor: end; visibility: inherit; font-family: Roboto, sans-serif; font-size: 12px; font-weight: 200;" fill="rgb(33, 33, 33)" stroke="none" stroke-width="1px">0.9</text><text x="0" y="37.69999999999999" dx="0em" dy="0.3em" style="text-anchor: end; visibility: inherit; font-family: Roboto, sans-serif; font-size: 12px; font-weight: 200;" fill="rgb(33, 33, 33)" stroke="none" stroke-width="1px">1</text><text x="0" y="0" dx="0em" dy="0.3em" style="text-anchor: end; visibility: hidden; font-family: Roboto, sans-serif; font-size: 12px; font-weight: 200;" fill="rgb(33, 33, 33)" stroke="none" stroke-width="1px">1.1</text></g><line x1="40" y1="0" x2="40" y2="377" fill="rgb(0, 0, 0)" stroke="rgb(204, 204, 204)" stroke-width="1px"></line></g></g><g transform="translate(40, 0)" clip-path="url(#clip_0)"><clipPath id="clip_0"><rect width="914" height="377"></rect></clipPath><g><g><g><line x1="0" y1="0" x2="0" y2="377" fill="rgb(0, 0, 0)" stroke="rgb(66, 66, 66)" stroke-width="1px" opacity="0.25"></line><line x1="76.16666666666666" y1="0" x2="76.16666666666666" y2="377" fill="rgb(0, 0, 0)" stroke="rgb(66, 66, 66)" stroke-width="1px" opacity="0.25"></line><line x1="152.33333333333331" y1="0" x2="152.33333333333331" y2="377" fill="rgb(0, 0, 0)" stroke="rgb(66, 66, 66)" stroke-width="1px" opacity="0.25"></line><line x1="228.5" y1="0" x2="228.5" y2="377" fill="rgb(0, 0, 0)" stroke="rgb(66, 66, 66)" stroke-width="1px" opacity="0.25"></line><line x1="304.66666666666663" y1="0" x2="304.66666666666663" y2="377" fill="rgb(0, 0, 0)" stroke="rgb(66, 66, 66)" stroke-width="1px" opacity="0.25"></line><line x1="380.83333333333337" y1="0" x2="380.83333333333337" y2="377" fill="rgb(0, 0, 0)" stroke="rgb(66, 66, 66)" stroke-width="1px" opacity="0.25"></line><line x1="457" y1="0" x2="457" y2="377" fill="rgb(0, 0, 0)" stroke="rgb(66, 66, 66)" stroke-width="1px" opacity="0.25"></line><line x1="533.1666666666667" y1="0" x2="533.1666666666667" y2="377" fill="rgb(0, 0, 0)" stroke="rgb(66, 66, 66)" stroke-width="1px" opacity="0.25"></line><line x1="609.3333333333333" y1="0" x2="609.3333333333333" y2="377" fill="rgb(0, 0, 0)" stroke="rgb(66, 66, 66)" stroke-width="1px" opacity="0.25"></line><line x1="685.5" y1="0" x2="685.5" y2="377" fill="rgb(0, 0, 0)" stroke="rgb(66, 66, 66)" stroke-width="1px" opacity="0.25"></line><line x1="761.6666666666667" y1="0" x2="761.6666666666667" y2="377" fill="rgb(0, 0, 0)" stroke="rgb(66, 66, 66)" stroke-width="1px" opacity="0.25"></line><line x1="837.8333333333333" y1="0" x2="837.8333333333333" y2="377" fill="rgb(0, 0, 0)" stroke="rgb(66, 66, 66)" stroke-width="1px" opacity="0.25"></line><line x1="914" y1="0" x2="914" y2="377" fill="rgb(0, 0, 0)" stroke="rgb(66, 66, 66)" stroke-width="1px" opacity="0.25"></line></g><g><line x1="0" y1="377" x2="914" y2="377" fill="rgb(0, 0, 0)" stroke="rgb(66, 66, 66)" stroke-width="1px" opacity="0.25"></line><line x1="0" y1="339.3" x2="914" y2="339.3" fill="rgb(0, 0, 0)" stroke="rgb(66, 66, 66)" stroke-width="1px" opacity="0.25"></line><line x1="0" y1="301.6" x2="914" y2="301.6" fill="rgb(0, 0, 0)" stroke="rgb(66, 66, 66)" stroke-width="1px" opacity="0.25"></line><line x1="0" y1="263.9" x2="914" y2="263.9" fill="rgb(0, 0, 0)" stroke="rgb(66, 66, 66)" stroke-width="1px" opacity="0.25"></line><line x1="0" y1="226.2" x2="914" y2="226.2" fill="rgb(0, 0, 0)" stroke="rgb(66, 66, 66)" stroke-width="1px" opacity="0.25"></line><line x1="0" y1="188.5" x2="914" y2="188.5" fill="rgb(0, 0, 0)" stroke="rgb(66, 66, 66)" stroke-width="1px" opacity="0.25"></line><line x1="0" y1="150.8" x2="914" y2="150.8" fill="rgb(0, 0, 0)" stroke="rgb(66, 66, 66)" stroke-width="1px" opacity="0.25"></line><line x1="0" y1="113.09999999999998" x2="914" y2="113.09999999999998" fill="rgb(0, 0, 0)" stroke="rgb(66, 66, 66)" stroke-width="1px" opacity="0.25"></line><line x1="0" y1="75.39999999999998" x2="914" y2="75.39999999999998" fill="rgb(0, 0, 0)" stroke="rgb(66, 66, 66)" stroke-width="1px" opacity="0.25"></line><line x1="0" y1="37.69999999999999" x2="914" y2="37.69999999999999" fill="rgb(0, 0, 0)" stroke="rgb(66, 66, 66)" stroke-width="1px" opacity="0.25"></line><line x1="0" y1="0" x2="914" y2="0" fill="rgb(0, 0, 0)" stroke="rgb(66, 66, 66)" stroke-width="1px" opacity="0.25"></line></g></g></g><g><g><line x1="0" y1="414.70000000000005" x2="914" y2="414.70000000000005" fill="rgb(0, 0, 0)" stroke="rgb(153, 153, 153)" stroke-width="1.5px"></line></g></g><g><g><line x1="76.16666666666666" y1="0" x2="76.16666666666666" y2="377" fill="rgb(0, 0, 0)" stroke="rgb(153, 153, 153)" stroke-width="1.5px"></line></g></g><g><g><g><g><g><path stroke="rgb(0, 119, 187)" stroke-width="2px" d="M76.16666666666666,361.4514130324125L83.78333333333333,383.8158180981875L91.4,370.503672760725L99.01666666666667,353.73036615252494L106.63333333333334,308.7353089570999L114.25,322.57994280457496L121.86666666666666,273.325L129.48333333333332,261.6103089570999L137.1,262.14279184937476L144.71666666666667,240.04463384747504L152.33333333333331,234.98601828217505L159.95,224.07004595994948L167.56666666666666,191.8546568274498L175.18333333333334,196.38080073595046L182.8,190.52345521450042L190.41666666666669,136.20988560914992L198.03333333333333,101.3320707798004L205.65,110.91680778264998L213.26666666666668,80.56511439085006L220.88333333333333,81.63008017539977L228.5,64.59053773880004L236.1166666666667,64.05804361104964L243.73333333333332,56.86949647665023L251.35000000000002,56.07076652050017L258.96666666666664,52.609610867500294L266.58333333333337,52.609610867500294L274.2,56.60323817729949L281.81666666666666,50.745915126800526L289.43333333333334,44.356075477600086L297.05,45.15480543375014L304.66666666666663,43.29110969305037L312.28333333333336,44.08983964920043L319.9,40.36242569684981L327.51666666666665,50.745915126800526L335.1333333333333,43.82358134984969L342.75,54.207070779800404L350.3666666666667,44.08983964920043L357.98333333333335,48.61596108675002L365.6,41.95988560914992L373.21666666666664,40.36242569684981L380.83333333333337,39.56369574069976L388.45,44.356075477600086L396.06666666666666,56.07076652050017L403.68333333333334,48.08346695899962L411.3,42.49237973690032L418.91666666666663,40.36242569684981L426.53333333333336,38.7649657845497L434.15,38.7649657845497L441.76666666666665,38.7649657845497L449.3833333333333,38.7649657845497L457,38.7649657845497L464.6166666666666,38.7649657845497L472.2333333333334,38.498729956150044L479.85,38.7649657845497L487.46666666666664,38.7649657845497L495.0833333333333,38.498729956150044L502.70000000000005,39.03122408390044L510.31666666666666,38.7649657845497L517.9333333333333,38.7649657845497L525.55,38.7649657845497L533.1666666666667,38.7649657845497L540.7833333333333,38.7649657845497L548.4,38.7649657845497L556.0166666666667,38.7649657845497L563.6333333333333,38.7649657845497L571.25,38.7649657845497L578.8666666666667,38.7649657845497L586.4833333333333,38.7649657845497L594.1,38.7649657845497L601.7166666666667,38.498729956150044L609.3333333333333,38.232494127750385L616.95,38.498729956150044L624.5666666666667,38.7649657845497L632.1833333333333,38.232494127750385L639.8,37.96623582839965L647.4166666666667,38.498729956150044L655.0333333333333,38.498729956150044L662.65,114.1117276072502L670.2666666666667,44.08983964920043L677.8833333333333,48.61596108675002L685.5,42.22612143754958L693.1166666666667,42.49237973690032L700.7333333333333,42.22612143754958L708.35,42.49237973690032L715.9666666666667,39.829954040050495L723.5833333333333,39.56369574069976L731.2,39.56369574069976L738.8166666666667,39.56369574069976L746.4333333333333,39.56369574069976L754.05,39.56369574069976L761.6666666666667,39.56369574069976L769.2833333333333,39.56369574069976L776.9,39.2974599123001L784.5166666666667,39.03122408390044L792.1333333333333,39.03122408390044L799.75,39.03122408390044L807.3666666666667,39.03122408390044L814.9833333333333,38.7649657845497L822.6,38.7649657845497L830.2166666666667,38.498729956150044" style="fill: none;" fill="none"></path></g><g><path stroke="rgb(255, 112, 67)" stroke-width="2px" d="M91.4,384.12009724676614L99.01666666666667,373.6225171804428L106.63333333333334,337.33740848004817L114.25,311.7780892074108L121.86666666666666,295.8035125553608L129.48333333333332,270.4724026441574L137.1,257.9209495604038L144.71666666666667,253.81319229006766L152.33333333333331,242.7450916290283L159.95,232.70393590331076L167.56666666666666,207.94334096908568L175.18333333333334,185.23662467002868L182.8,168.80564053058623L190.41666666666669,142.10527445077895L198.03333333333333,121.79472554922103L205.65,106.73298634290694L213.26666666666668,84.59678502082824L220.88333333333333,85.8519449353218L228.5,67.02474845647811L236.1166666666667,60.749038767814625L243.73333333333332,58.809256386756886L251.35000000000002,53.90279163122176L258.96666666666664,51.506601762771595L266.58333333333337,44.66035462617873L274.2,47.969359469413746L281.81666666666666,49.68092687129973L289.43333333333334,41.57954229116439L297.05,48.08346695899962L304.66666666666663,40.78081233501433L312.28333333333336,39.2974599123001L319.9,40.666704845428455L327.51666666666665,41.57954229116439L335.1333333333333,40.89491982460021L342.75,45.00265462398528L350.3666666666667,51.39249427318572L357.98333333333335,43.06289471387862L365.6,39.8679748892784L373.21666666666664,38.84102995395659L380.83333333333337,37.92821497917174L388.45,39.98208237886428L396.06666666666666,43.06289471387862L403.68333333333334,47.056544494628895L411.3,41.80775727033614L418.91666666666663,38.38462246656417L426.53333333333336,37.92821497917174L434.15,37.69999999999999L441.76666666666665,37.69999999999999L449.3833333333333,37.69999999999999L457,37.69999999999999L464.6166666666666,37.69999999999999L472.2333333333334,37.69999999999999L479.85,37.69999999999999L487.46666666666664,37.69999999999999L495.0833333333333,37.69999999999999L502.70000000000005,37.69999999999999L510.31666666666666,37.69999999999999L517.9333333333333,37.69999999999999L525.55,37.69999999999999L533.1666666666667,37.69999999999999L540.7833333333333,37.69999999999999L548.4,37.69999999999999L556.0166666666667,37.69999999999999L563.6333333333333,37.69999999999999L571.25,37.69999999999999L578.8666666666667,37.69999999999999L586.4833333333333,37.69999999999999L594.1,37.69999999999999L601.7166666666667,37.69999999999999L609.3333333333333,37.69999999999999L616.95,37.69999999999999L624.5666666666667,37.69999999999999L632.1833333333333,37.69999999999999L639.8,37.69999999999999L647.4166666666667,37.69999999999999L655.0333333333333,37.69999999999999L662.65,59.493878853321064L670.2666666666667,62.11828370094298L677.8833333333333,47.17065198421477L685.5,44.88856960535048L693.1166666666667,39.52567489147185L700.7333333333333,38.61283744573592L708.35,42.83467973470687L715.9666666666667,38.38462246656417L723.5833333333333,37.69999999999999L731.2,37.69999999999999L738.8166666666667,37.69999999999999L746.4333333333333,37.69999999999999L754.05,37.69999999999999L761.6666666666667,37.69999999999999L769.2833333333333,37.69999999999999L776.9,37.69999999999999L784.5166666666667,37.69999999999999L792.1333333333333,37.69999999999999L799.75,37.69999999999999L807.3666666666667,37.69999999999999L814.9833333333333,37.69999999999999L822.6,37.69999999999999L830.2166666666667,37.69999999999999" style="fill: none;" fill="none"></path></g></g></g></g></g></g><g transform="translate(40, 377)" clip-path="url(#clip_1)"><clipPath id="clip_1"><rect width="914" height="23"></rect></clipPath><g><g><line x1="0" y1="0" x2="0" y2="5" style="visibility: inherit;" fill="rgb(0, 0, 0)" stroke="rgb(204, 204, 204)" stroke-width="1px"></line><line x1="76.16666666666666" y1="0" x2="76.16666666666666" y2="5" style="visibility: inherit;" fill="rgb(0, 0, 0)" stroke="rgb(204, 204, 204)" stroke-width="1px"></line><line x1="152.33333333333331" y1="0" x2="152.33333333333331" y2="5" style="visibility: inherit;" fill="rgb(0, 0, 0)" stroke="rgb(204, 204, 204)" stroke-width="1px"></line><line x1="228.5" y1="0" x2="228.5" y2="5" style="visibility: inherit;" fill="rgb(0, 0, 0)" stroke="rgb(204, 204, 204)" stroke-width="1px"></line><line x1="304.66666666666663" y1="0" x2="304.66666666666663" y2="5" style="visibility: inherit;" fill="rgb(0, 0, 0)" stroke="rgb(204, 204, 204)" stroke-width="1px"></line><line x1="380.83333333333337" y1="0" x2="380.83333333333337" y2="5" style="visibility: inherit;" fill="rgb(0, 0, 0)" stroke="rgb(204, 204, 204)" stroke-width="1px"></line><line x1="457" y1="0" x2="457" y2="5" style="visibility: inherit;" fill="rgb(0, 0, 0)" stroke="rgb(204, 204, 204)" stroke-width="1px"></line><line x1="533.1666666666667" y1="0" x2="533.1666666666667" y2="5" style="visibility: inherit;" fill="rgb(0, 0, 0)" stroke="rgb(204, 204, 204)" stroke-width="1px"></line><line x1="609.3333333333333" y1="0" x2="609.3333333333333" y2="5" style="visibility: inherit;" fill="rgb(0, 0, 0)" stroke="rgb(204, 204, 204)" stroke-width="1px"></line><line x1="685.5" y1="0" x2="685.5" y2="5" style="visibility: inherit;" fill="rgb(0, 0, 0)" stroke="rgb(204, 204, 204)" stroke-width="1px"></line><line x1="761.6666666666667" y1="0" x2="761.6666666666667" y2="5" style="visibility: inherit;" fill="rgb(0, 0, 0)" stroke="rgb(204, 204, 204)" stroke-width="1px"></line><line x1="837.8333333333333" y1="0" x2="837.8333333333333" y2="5" style="visibility: inherit;" fill="rgb(0, 0, 0)" stroke="rgb(204, 204, 204)" stroke-width="1px"></line><line x1="914" y1="0" x2="914" y2="5" style="visibility: inherit;" fill="rgb(0, 0, 0)" stroke="rgb(204, 204, 204)" stroke-width="1px"></line></g><g transform="translate(0, 8)"><text x="0" y="0" dx="0em" dy="0.95em" style="text-anchor: middle; visibility: hidden; font-family: Roboto, sans-serif; font-size: 12px; font-weight: 200;" fill="rgb(33, 33, 33)" stroke="none" stroke-width="1px">-10</text><text x="76.16666666666666" y="0" dx="0em" dy="0.95em" style="text-anchor: middle; visibility: inherit; font-family: Roboto, sans-serif; font-size: 12px; font-weight: 200;" fill="rgb(33, 33, 33)" stroke="none" stroke-width="1px">0</text><text x="152.33333333333331" y="0" dx="0em" dy="0.95em" style="text-anchor: middle; visibility: inherit; font-family: Roboto, sans-serif; font-size: 12px; font-weight: 200;" fill="rgb(33, 33, 33)" stroke="none" stroke-width="1px">10</text><text x="228.5" y="0" dx="0em" dy="0.95em" style="text-anchor: middle; visibility: inherit; font-family: Roboto, sans-serif; font-size: 12px; font-weight: 200;" fill="rgb(33, 33, 33)" stroke="none" stroke-width="1px">20</text><text x="304.66666666666663" y="0" dx="0em" dy="0.95em" style="text-anchor: middle; visibility: inherit; font-family: Roboto, sans-serif; font-size: 12px; font-weight: 200;" fill="rgb(33, 33, 33)" stroke="none" stroke-width="1px">30</text><text x="380.83333333333337" y="0" dx="0em" dy="0.95em" style="text-anchor: middle; visibility: inherit; font-family: Roboto, sans-serif; font-size: 12px; font-weight: 200;" fill="rgb(33, 33, 33)" stroke="none" stroke-width="1px">40</text><text x="457" y="0" dx="0em" dy="0.95em" style="text-anchor: middle; visibility: inherit; font-family: Roboto, sans-serif; font-size: 12px; font-weight: 200;" fill="rgb(33, 33, 33)" stroke="none" stroke-width="1px">50</text><text x="533.1666666666667" y="0" dx="0em" dy="0.95em" style="text-anchor: middle; visibility: inherit; font-family: Roboto, sans-serif; font-size: 12px; font-weight: 200;" fill="rgb(33, 33, 33)" stroke="none" stroke-width="1px">60</text><text x="609.3333333333333" y="0" dx="0em" dy="0.95em" style="text-anchor: middle; visibility: inherit; font-family: Roboto, sans-serif; font-size: 12px; font-weight: 200;" fill="rgb(33, 33, 33)" stroke="none" stroke-width="1px">70</text><text x="685.5" y="0" dx="0em" dy="0.95em" style="text-anchor: middle; visibility: inherit; font-family: Roboto, sans-serif; font-size: 12px; font-weight: 200;" fill="rgb(33, 33, 33)" stroke="none" stroke-width="1px">80</text><text x="761.6666666666667" y="0" dx="0em" dy="0.95em" style="text-anchor: middle; visibility: inherit; font-family: Roboto, sans-serif; font-size: 12px; font-weight: 200;" fill="rgb(33, 33, 33)" stroke="none" stroke-width="1px">90</text><text x="837.8333333333333" y="0" dx="0em" dy="0.95em" style="text-anchor: middle; visibility: inherit; font-family: Roboto, sans-serif; font-size: 12px; font-weight: 200;" fill="rgb(33, 33, 33)" stroke="none" stroke-width="1px">100</text><text x="914" y="0" dx="0em" dy="0.95em" style="text-anchor: middle; visibility: hidden; font-family: Roboto, sans-serif; font-size: 12px; font-weight: 200;" fill="rgb(33, 33, 33)" stroke="none" stroke-width="1px">110</text></g><line x1="0" y1="0" x2="914" y2="0" fill="rgb(0, 0, 0)" stroke="rgb(204, 204, 204)" stroke-width="1px"></line></g></g></g></g></svg>