<svg viewBox="0 0 954 400" xmlns="http://www.w3.org/2000/svg"><g><g><g><g><g><line x1="50" y1="377" x2="45" y2="377" style="visibility: inherit;" fill="rgb(0, 0, 0)" stroke="rgb(204, 204, 204)" stroke-width="1px"></line><line x1="50" y1="348" x2="45" y2="348" style="visibility: inherit;" fill="rgb(0, 0, 0)" stroke="rgb(204, 204, 204)" stroke-width="1px"></line><line x1="50" y1="319.00000000000006" x2="45" y2="319.00000000000006" style="visibility: inherit;" fill="rgb(0, 0, 0)" stroke="rgb(204, 204, 204)" stroke-width="1px"></line><line x1="50" y1="290" x2="45" y2="290" style="visibility: inherit;" fill="rgb(0, 0, 0)" stroke="rgb(204, 204, 204)" stroke-width="1px"></line><line x1="50" y1="261.00000000000006" x2="45" y2="261.00000000000006" style="visibility: inherit;" fill="rgb(0, 0, 0)" stroke="rgb(204, 204, 204)" stroke-width="1px"></line><line x1="50" y1="232" x2="45" y2="232" style="visibility: inherit;" fill="rgb(0, 0, 0)" stroke="rgb(204, 204, 204)" stroke-width="1px"></line><line x1="50" y1="203.00000000000003" x2="45" y2="203.00000000000003" style="visibility: inherit;" fill="rgb(0, 0, 0)" stroke="rgb(204, 204, 204)" stroke-width="1px"></line><line x1="50" y1="174" x2="45" y2="174" style="visibility: inherit;" fill="rgb(0, 0, 0)" stroke="rgb(204, 204, 204)" stroke-width="1px"></line><line x1="50" y1="145" x2="45" y2="145" style="visibility: inherit;" fill="rgb(0, 0, 0)" stroke="rgb(204, 204, 204)" stroke-width="1px"></line><line x1="50" y1="116.00000000000004" x2="45" y2="116.00000000000004" style="visibility: inherit;" fill="rgb(0, 0, 0)" stroke="rgb(204, 204, 204)" stroke-width="1px"></line><line x1="50" y1="87.00000000000003" x2="45" y2="87.00000000000003" style="visibility: inherit;" fill="rgb(0, 0, 0)" stroke="rgb(204, 204, 204)" stroke-width="1px"></line><line x1="50" y1="58.00000000000004" x2="45" y2="58.00000000000004" style="visibility: inherit;" fill="rgb(0, 0, 0)" stroke="rgb(204, 204, 204)" stroke-width="1px"></line><line x1="50" y1="29.00000000000002" x2="45" y2="29.00000000000002" style="visibility: inherit;" fill="rgb(0, 0, 0)" stroke="rgb(204, 204, 204)" stroke-width="1px"></line><line x1="50" y1="0" x2="45" y2="0" style="visibility: inherit;" fill="rgb(0, 0, 0)" stroke="rgb(204, 204, 204)" stroke-width="1px"></line></g><g transform="translate(40, 0)"><text x="0" y="377" dx="0em" dy="0.3em" style="text-anchor: end; visibility: hidden; font-family: Roboto, sans-serif; font-size: 12px; font-weight: 200;" fill="rgb(33, 33, 33)" stroke="none" stroke-width="1px">0.4</text><text x="0" y="348" dx="0em" dy="0.3em" style="text-anchor: end; visibility: inherit; font-family: Roboto, sans-serif; font-size: 12px; font-weight: 200;" fill="rgb(33, 33, 33)" stroke="none" stroke-width="1px">0.45</text><text x="0" y="319.00000000000006" dx="0em" dy="0.3em" style="text-anchor: end; visibility: inherit; font-family: Roboto, sans-serif; font-size: 12px; font-weight: 200;" fill="rgb(33, 33, 33)" stroke="none" stroke-width="1px">0.5</text><text x="0" y="290" dx="0em" dy="0.3em" style="text-anchor: end; visibility: inherit; font-family: Roboto, sans-serif; font-size: 12px; font-weight: 200;" fill="rgb(33, 33, 33)" stroke="none" stroke-width="1px">0.55</text><text x="0" y="261.00000000000006" dx="0em" dy="0.3em" style="text-anchor: end; visibility: inherit; font-family: Roboto, sans-serif; font-size: 12px; font-weight: 200;" fill="rgb(33, 33, 33)" stroke="none" stroke-width="1px">0.6</text><text x="0" y="232" dx="0em" dy="0.3em" style="text-anchor: end; visibility: inherit; font-family: Roboto, sans-serif; font-size: 12px; font-weight: 200;" fill="rgb(33, 33, 33)" stroke="none" stroke-width="1px">0.65</text><text x="0" y="203.00000000000003" dx="0em" dy="0.3em" style="text-anchor: end; visibility: inherit; font-family: Roboto, sans-serif; font-size: 12px; font-weight: 200;" fill="rgb(33, 33, 33)" stroke="none" stroke-width="1px">0.7</text><text x="0" y="174" dx="0em" dy="0.3em" style="text-anchor: end; visibility: inherit; font-family: Roboto, sans-serif; font-size: 12px; font-weight: 200;" fill="rgb(33, 33, 33)" stroke="none" stroke-width="1px">0.75</text><text x="0" y="145" dx="0em" dy="0.3em" style="text-anchor: end; visibility: inherit; font-family: Roboto, sans-serif; font-size: 12px; font-weight: 200;" fill="rgb(33, 33, 33)" stroke="none" stroke-width="1px">0.8</text><text x="0" y="116.00000000000004" dx="0em" dy="0.3em" style="text-anchor: end; visibility: inherit; font-family: Roboto, sans-serif; font-size: 12px; font-weight: 200;" fill="rgb(33, 33, 33)" stroke="none" stroke-width="1px">0.85</text><text x="0" y="87.00000000000003" dx="0em" dy="0.3em" style="text-anchor: end; visibility: inherit; font-family: Roboto, sans-serif; font-size: 12px; font-weight: 200;" fill="rgb(33, 33, 33)" stroke="none" stroke-width="1px">0.9</text><text x="0" y="58.00000000000004" dx="0em" dy="0.3em" style="text-anchor: end; visibility: inherit; font-family: Roboto, sans-serif; font-size: 12px; font-weight: 200;" fill="rgb(33, 33, 33)" stroke="none" stroke-width="1px">0.95</text><text x="0" y="29.00000000000002" dx="0em" dy="0.3em" style="text-anchor: end; visibility: inherit; font-family: Roboto, sans-serif; font-size: 12px; font-weight: 200;" fill="rgb(33, 33, 33)" stroke="none" stroke-width="1px">1</text><text x="0" y="0" dx="0em" dy="0.3em" style="text-anchor: end; visibility: hidden; font-family: Roboto, sans-serif; font-size: 12px; font-weight: 200;" fill="rgb(33, 33, 33)" stroke="none" stroke-width="1px">1.05</text></g><line x1="50" y1="0" x2="50" y2="377" fill="rgb(0, 0, 0)" stroke="rgb(204, 204, 204)" stroke-width="1px"></line></g></g><g transform="translate(50, 0)" clip-path="url(#clip_0)"><clipPath id="clip_0"><rect width="904" height="377"></rect></clipPath><g><g><g><line x1="0" y1="0" x2="0" y2="377" fill="rgb(0, 0, 0)" stroke="rgb(66, 66, 66)" stroke-width="1px" opacity="0.25"></line><line x1="75.33333333333333" y1="0" x2="75.33333333333333" y2="377" fill="rgb(0, 0, 0)" stroke="rgb(66, 66, 66)" stroke-width="1px" opacity="0.25"></line><line x1="150.66666666666666" y1="0" x2="150.66666666666666" y2="377" fill="rgb(0, 0, 0)" stroke="rgb(66, 66, 66)" stroke-width="1px" opacity="0.25"></line><line x1="226" y1="0" x2="226" y2="377" fill="rgb(0, 0, 0)" stroke="rgb(66, 66, 66)" stroke-width="1px" opacity="0.25"></line><line x1="301.3333333333333" y1="0" x2="301.3333333333333" y2="377" fill="rgb(0, 0, 0)" stroke="rgb(66, 66, 66)" stroke-width="1px" opacity="0.25"></line><line x1="376.6666666666667" y1="0" x2="376.6666666666667" y2="377" fill="rgb(0, 0, 0)" stroke="rgb(66, 66, 66)" stroke-width="1px" opacity="0.25"></line><line x1="452" y1="0" x2="452" y2="377" fill="rgb(0, 0, 0)" stroke="rgb(66, 66, 66)" stroke-width="1px" opacity="0.25"></line><line x1="527.3333333333334" y1="0" x2="527.3333333333334" y2="377" fill="rgb(0, 0, 0)" stroke="rgb(66, 66, 66)" stroke-width="1px" opacity="0.25"></line><line x1="602.6666666666666" y1="0" x2="602.6666666666666" y2="377" fill="rgb(0, 0, 0)" stroke="rgb(66, 66, 66)" stroke-width="1px" opacity="0.25"></line><line x1="678" y1="0" x2="678" y2="377" fill="rgb(0, 0, 0)" stroke="rgb(66, 66, 66)" stroke-width="1px" opacity="0.25"></line><line x1="753.3333333333334" y1="0" x2="753.3333333333334" y2="377" fill="rgb(0, 0, 0)" stroke="rgb(66, 66, 66)" stroke-width="1px" opacity="0.25"></line><line x1="828.6666666666666" y1="0" x2="828.6666666666666" y2="377" fill="rgb(0, 0, 0)" stroke="rgb(66, 66, 66)" stroke-width="1px" opacity="0.25"></line><line x1="904" y1="0" x2="904" y2="377" fill="rgb(0, 0, 0)" stroke="rgb(66, 66, 66)" stroke-width="1px" opacity="0.25"></line></g><g><line x1="0" y1="377" x2="904" y2="377" fill="rgb(0, 0, 0)" stroke="rgb(66, 66, 66)" stroke-width="1px" opacity="0.25"></line><line x1="0" y1="348" x2="904" y2="348" fill="rgb(0, 0, 0)" stroke="rgb(66, 66, 66)" stroke-width="1px" opacity="0.25"></line><line x1="0" y1="319.00000000000006" x2="904" y2="319.00000000000006" fill="rgb(0, 0, 0)" stroke="rgb(66, 66, 66)" stroke-width="1px" opacity="0.25"></line><line x1="0" y1="290" x2="904" y2="290" fill="rgb(0, 0, 0)" stroke="rgb(66, 66, 66)" stroke-width="1px" opacity="0.25"></line><line x1="0" y1="261.00000000000006" x2="904" y2="261.00000000000006" fill="rgb(0, 0, 0)" stroke="rgb(66, 66, 66)" stroke-width="1px" opacity="0.25"></line><line x1="0" y1="232" x2="904" y2="232" fill="rgb(0, 0, 0)" stroke="rgb(66, 66, 66)" stroke-width="1px" opacity="0.25"></line><line x1="0" y1="203.00000000000003" x2="904" y2="203.00000000000003" fill="rgb(0, 0, 0)" stroke="rgb(66, 66, 66)" stroke-width="1px" opacity="0.25"></line><line x1="0" y1="174" x2="904" y2="174" fill="rgb(0, 0, 0)" stroke="rgb(66, 66, 66)" stroke-width="1px" opacity="0.25"></line><line x1="0" y1="145" x2="904" y2="145" fill="rgb(0, 0, 0)" stroke="rgb(66, 66, 66)" stroke-width="1px" opacity="0.25"></line><line x1="0" y1="116.00000000000004" x2="904" y2="116.00000000000004" fill="rgb(0, 0, 0)" stroke="rgb(66, 66, 66)" stroke-width="1px" opacity="0.25"></line><line x1="0" y1="87.00000000000003" x2="904" y2="87.00000000000003" fill="rgb(0, 0, 0)" stroke="rgb(66, 66, 66)" stroke-width="1px" opacity="0.25"></line><line x1="0" y1="58.00000000000004" x2="904" y2="58.00000000000004" fill="rgb(0, 0, 0)" stroke="rgb(66, 66, 66)" stroke-width="1px" opacity="0.25"></line><line x1="0" y1="29.00000000000002" x2="904" y2="29.00000000000002" fill="rgb(0, 0, 0)" stroke="rgb(66, 66, 66)" stroke-width="1px" opacity="0.25"></line><line x1="0" y1="0" x2="904" y2="0" fill="rgb(0, 0, 0)" stroke="rgb(66, 66, 66)" stroke-width="1px" opacity="0.25"></line></g></g></g><g><g><line x1="0" y1="609" x2="904" y2="609" fill="rgb(0, 0, 0)" stroke="rgb(153, 153, 153)" stroke-width="1.5px"></line></g></g><g><g><line x1="75.33333333333333" y1="0" x2="75.33333333333333" y2="377" fill="rgb(0, 0, 0)" stroke="rgb(153, 153, 153)" stroke-width="1.5px"></line></g></g><g><g><g><g><g><path stroke="rgb(0, 119, 187)" stroke-width="2px" d="M82.86666666666666,445.875L90.4,368.13888812065125L97.93333333333334,345.5833252668381L105.46666666666667,294.8333218097687L113,345.5833252668381L120.53333333333333,245.69443368911746L128.06666666666666,229.18056631088257L135.6,179.23611187934878L143.13333333333333,159.9027624130249L150.66666666666666,131.70832180976868L158.2,70.4861118793488L165.73333333333332,79.34723758697511L173.26666666666668,71.69446134567264L180.8,39.06944060325623L188.33333333333334,79.74998617172245L195.86666666666667,49.13888120651249L203.4,78.54167127609256L210.93333333333334,45.513901948928854L218.46666666666667,45.513901948928854L226,32.62501382827761L233.53333333333336,32.22223067283631L241.06666666666666,35.04167819023135L248.60000000000002,30.20834946632387L256.1333333333333,39.06944060325623L263.6666666666667,38.66665744781498L271.2,42.291671276092565L278.73333333333335,36.24999308586124L286.26666666666665,29.805566310882575L293.8,33.8333287239075L301.3333333333333,33.4305455684662L308.8666666666667,31.41666436195376L316.4,34.63889503479005L323.93333333333334,40.68053865432742L331.46666666666664,34.2361118793488L339,89.01389503479007L346.53333333333336,39.06944060325623L354.06666666666666,33.8333287239075L361.6,30.20834946632387L369.1333333333333,29.805566310882575L376.6666666666667,29.40278315544132L384.2,29.40278315544132L391.73333333333335,29.805566310882575L399.26666666666665,30.20834946632387L406.8,30.20834946632387L414.3333333333333,30.20834946632387L421.8666666666667,30.20834946632387L429.4,30.20834946632387L436.93333333333334,30.20834946632387L444.46666666666664,29.805566310882575L452,29.805566310882575L459.5333333333333,30.20834946632387L467.0666666666667,30.20834946632387L474.6,30.20834946632387L482.1333333333333,29.805566310882575L489.66666666666663,29.805566310882575L497.20000000000005,30.20834946632387L504.73333333333335,29.805566310882575L512.2666666666667,29.805566310882575L519.8,29.805566310882575L527.3333333333334,29.805566310882575L534.8666666666667,30.20834946632387L542.4,30.20834946632387L549.9333333333333,29.805566310882575L557.4666666666667,30.20834946632387L565,30.20834946632387L572.5333333333333,30.20834946632387L580.0666666666667,29.805566310882575L587.6,29.805566310882575L595.1333333333333,29.805566310882575L602.6666666666666,29.805566310882575L610.2,29.40278315544132L617.7333333333333,29.805566310882575L625.2666666666667,29.805566310882575L632.8,29.805566310882575L640.3333333333334,29.805566310882575L647.8666666666667,29.805566310882575L655.4,29.40278315544132L662.9333333333333,29.40278315544132L670.4666666666667,29.805566310882575L678,29.805566310882575L685.5333333333333,29.805566310882575L693.0666666666667,29.805566310882575L700.6,29.805566310882575L708.1333333333333,30.20834946632387L715.6666666666666,29.805566310882575L723.2,29.805566310882575L730.7333333333333,29.805566310882575L738.2666666666667,29.40278315544132L745.8,29.40278315544132L753.3333333333334,29.40278315544132L760.8666666666667,29.805566310882575L768.4,29.805566310882575L775.9333333333333,29.805566310882575L783.4666666666667,29.805566310882575L791,29.40278315544132L798.5333333333333,29.40278315544132L806.0666666666667,29.40278315544132L813.6,29.40278315544132L821.1333333333333,29.40278315544132" style="fill: none;" fill="none"></path></g><g><path stroke="rgb(255, 112, 67)" stroke-width="2px" d="M97.93333333333334,379.0714206695557L105.46666666666667,345.41071379184723L113,317.79165053367615L120.53333333333333,273.7738230228424L128.06666666666666,245.11903905868533L135.6,211.97618389129642L143.13333333333333,162.77977013587955L150.66666666666666,139.47618389129642L158.2,107.36903214454655L165.73333333333332,88.55358624458314L173.26666666666668,89.93451261520387L180.8,54.37499308586121L188.33333333333334,59.89880228042603L195.86666666666667,51.78571724891664L203.4,51.267848253250136L210.93333333333334,54.54760456085209L218.46666666666667,48.16070342063905L226,40.39284133911137L233.53333333333336,36.077381610870404L241.06666666666666,32.107144832611105L248.60000000000002,32.107144832611105L256.1333333333333,32.279756307601936L263.6666666666667,36.94047355651858L271.2,48.33334946632389L278.73333333333335,39.01191496849061L286.26666666666665,31.244052886962926L293.8,30.553572416305585L301.3333333333333,35.904770135879524L308.8666666666667,29.345222949981736L316.4,35.55951261520389L323.93333333333334,37.803565502166755L331.46666666666664,36.24999308586124L339,46.95238852500916L346.53333333333336,36.94047355651858L354.06666666666666,31.934533357620268L361.6,30.72618389129642L369.1333333333333,29.345222949981736L376.6666666666667,29.17261147499086L384.2,29.00000000000002L391.73333333333335,29.00000000000002L399.26666666666665,29.00000000000002L406.8,29.00000000000002L414.3333333333333,29.00000000000002L421.8666666666667,29.00000000000002L429.4,29.00000000000002L436.93333333333334,29.00000000000002L444.46666666666664,29.00000000000002L452,29.00000000000002L459.5333333333333,29.00000000000002L467.0666666666667,29.00000000000002L474.6,29.00000000000002L482.1333333333333,29.00000000000002L489.66666666666663,29.00000000000002L497.20000000000005,29.00000000000002L504.73333333333335,29.00000000000002L512.2666666666667,29.00000000000002L519.8,29.00000000000002L527.3333333333334,29.00000000000002L534.8666666666667,29.00000000000002L542.4,29.00000000000002L549.9333333333333,29.00000000000002L557.4666666666667,29.00000000000002L565,29.00000000000002L572.5333333333333,29.00000000000002L580.0666666666667,29.00000000000002L587.6,29.00000000000002L595.1333333333333,29.00000000000002L602.6666666666666,29.00000000000002L610.2,29.00000000000002L617.7333333333333,29.00000000000002L625.2666666666667,29.00000000000002L632.8,29.00000000000002L640.3333333333334,29.00000000000002L647.8666666666667,29.00000000000002L655.4,29.00000000000002L662.9333333333333,29.00000000000002L670.4666666666667,29.00000000000002L678,29.00000000000002L685.5333333333333,29.00000000000002L693.0666666666667,29.00000000000002L700.6,29.00000000000002L708.1333333333333,29.00000000000002L715.6666666666666,29.00000000000002L723.2,29.00000000000002L730.7333333333333,29.00000000000002L738.2666666666667,29.00000000000002L745.8,29.00000000000002L753.3333333333334,29.00000000000002L760.8666666666667,29.00000000000002L768.4,29.00000000000002L775.9333333333333,29.00000000000002L783.4666666666667,29.00000000000002L791,29.00000000000002L798.5333333333333,29.00000000000002L806.0666666666667,29.00000000000002L813.6,29.00000000000002L821.1333333333333,29.00000000000002" style="fill: none;" fill="none"></path></g></g></g></g></g></g><g transform="translate(50, 377)" clip-path="url(#clip_1)"><clipPath id="clip_1"><rect width="904" height="23"></rect></clipPath><g><g><line x1="0" y1="0" x2="0" y2="5" style="visibility: inherit;" fill="rgb(0, 0, 0)" stroke="rgb(204, 204, 204)" stroke-width="1px"></line><line x1="75.33333333333333" y1="0" x2="75.33333333333333" y2="5" style="visibility: inherit;" fill="rgb(0, 0, 0)" stroke="rgb(204, 204, 204)" stroke-width="1px"></line><line x1="150.66666666666666" y1="0" x2="150.66666666666666" y2="5" style="visibility: inherit;" fill="rgb(0, 0, 0)" stroke="rgb(204, 204, 204)" stroke-width="1px"></line><line x1="226" y1="0" x2="226" y2="5" style="visibility: inherit;" fill="rgb(0, 0, 0)" stroke="rgb(204, 204, 204)" stroke-width="1px"></line><line x1="301.3333333333333" y1="0" x2="301.3333333333333" y2="5" style="visibility: inherit;" fill="rgb(0, 0, 0)" stroke="rgb(204, 204, 204)" stroke-width="1px"></line><line x1="376.6666666666667" y1="0" x2="376.6666666666667" y2="5" style="visibility: inherit;" fill="rgb(0, 0, 0)" stroke="rgb(204, 204, 204)" stroke-width="1px"></line><line x1="452" y1="0" x2="452" y2="5" style="visibility: inherit;" fill="rgb(0, 0, 0)" stroke="rgb(204, 204, 204)" stroke-width="1px"></line><line x1="527.3333333333334" y1="0" x2="527.3333333333334" y2="5" style="visibility: inherit;" fill="rgb(0, 0, 0)" stroke="rgb(204, 204, 204)" stroke-width="1px"></line><line x1="602.6666666666666" y1="0" x2="602.6666666666666" y2="5" style="visibility: inherit;" fill="rgb(0, 0, 0)" stroke="rgb(204, 204, 204)" stroke-width="1px"></line><line x1="678" y1="0" x2="678" y2="5" style="visibility: inherit;" fill="rgb(0, 0, 0)" stroke="rgb(204, 204, 204)" stroke-width="1px"></line><line x1="753.3333333333334" y1="0" x2="753.3333333333334" y2="5" style="visibility: inherit;" fill="rgb(0, 0, 0)" stroke="rgb(204, 204, 204)" stroke-width="1px"></line><line x1="828.6666666666666" y1="0" x2="828.6666666666666" y2="5" style="visibility: inherit;" fill="rgb(0, 0, 0)" stroke="rgb(204, 204, 204)" stroke-width="1px"></line><line x1="904" y1="0" x2="904" y2="5" style="visibility: inherit;" fill="rgb(0, 0, 0)" stroke="rgb(204, 204, 204)" stroke-width="1px"></line></g><g transform="translate(0, 8)"><text x="0" y="0" dx="0em" dy="0.95em" style="text-anchor: middle; visibility: hidden; font-family: Roboto, sans-serif; font-size: 12px; font-weight: 200;" fill="rgb(33, 33, 33)" stroke="none" stroke-width="1px">-10</text><text x="75.33333333333333" y="0" dx="0em" dy="0.95em" style="text-anchor: middle; visibility: inherit; font-family: Roboto, sans-serif; font-size: 12px; font-weight: 200;" fill="rgb(33, 33, 33)" stroke="none" stroke-width="1px">0</text><text x="150.66666666666666" y="0" dx="0em" dy="0.95em" style="text-anchor: middle; visibility: inherit; font-family: Roboto, sans-serif; font-size: 12px; font-weight: 200;" fill="rgb(33, 33, 33)" stroke="none" stroke-width="1px">10</text><text x="226" y="0" dx="0em" dy="0.95em" style="text-anchor: middle; visibility: inherit; font-family: Roboto, sans-serif; font-size: 12px; font-weight: 200;" fill="rgb(33, 33, 33)" stroke="none" stroke-width="1px">20</text><text x="301.3333333333333" y="0" dx="0em" dy="0.95em" style="text-anchor: middle; visibility: inherit; font-family: Roboto, sans-serif; font-size: 12px; font-weight: 200;" fill="rgb(33, 33, 33)" stroke="none" stroke-width="1px">30</text><text x="376.6666666666667" y="0" dx="0em" dy="0.95em" style="text-anchor: middle; visibility: inherit; font-family: Roboto, sans-serif; font-size: 12px; font-weight: 200;" fill="rgb(33, 33, 33)" stroke="none" stroke-width="1px">40</text><text x="452" y="0" dx="0em" dy="0.95em" style="text-anchor: middle; visibility: inherit; font-family: Roboto, sans-serif; font-size: 12px; font-weight: 200;" fill="rgb(33, 33, 33)" stroke="none" stroke-width="1px">50</text><text x="527.3333333333334" y="0" dx="0em" dy="0.95em" style="text-anchor: middle; visibility: inherit; font-family: Roboto, sans-serif; font-size: 12px; font-weight: 200;" fill="rgb(33, 33, 33)" stroke="none" stroke-width="1px">60</text><text x="602.6666666666666" y="0" dx="0em" dy="0.95em" style="text-anchor: middle; visibility: inherit; font-family: Roboto, sans-serif; font-size: 12px; font-weight: 200;" fill="rgb(33, 33, 33)" stroke="none" stroke-width="1px">70</text><text x="678" y="0" dx="0em" dy="0.95em" style="text-anchor: middle; visibility: inherit; font-family: Roboto, sans-serif; font-size: 12px; font-weight: 200;" fill="rgb(33, 33, 33)" stroke="none" stroke-width="1px">80</text><text x="753.3333333333334" y="0" dx="0em" dy="0.95em" style="text-anchor: middle; visibility: inherit; font-family: Roboto, sans-serif; font-size: 12px; font-weight: 200;" fill="rgb(33, 33, 33)" stroke="none" stroke-width="1px">90</text><text x="828.6666666666666" y="0" dx="0em" dy="0.95em" style="text-anchor: middle; visibility: inherit; font-family: Roboto, sans-serif; font-size: 12px; font-weight: 200;" fill="rgb(33, 33, 33)" stroke="none" stroke-width="1px">100</text><text x="904" y="0" dx="0em" dy="0.95em" style="text-anchor: middle; visibility: hidden; font-family: Roboto, sans-serif; font-size: 12px; font-weight: 200;" fill="rgb(33, 33, 33)" stroke="none" stroke-width="1px">110</text></g><line x1="0" y1="0" x2="904" y2="0" fill="rgb(0, 0, 0)" stroke="rgb(204, 204, 204)" stroke-width="1px"></line></g></g></g></g></svg>